<svg width="268" height="52" viewBox="0 0 268 52" fill="none" xmlns="http://www.w3.org/2000/svg">
    <path d="M3.31063 38.5623C11.696 48.83 23.347 44.5518 28.1244 41.1292C28.8089 39.9311 27.8392 40.0597 27.2687 40.2738C20.9369 43.183 16.3592 39.0616 14.8618 36.6372C14.3485 35.4393 13.7923 35.9954 13.5784 36.4233C11.6959 39.8458 6.5193 38.7049 4.16627 37.7066C3.1395 37.5355 3.16802 38.2057 3.31063 38.5623Z" fill="#014852"/>
    <path d="M0.529731 22.3061C-1.01043 22.135 1.17147 18.8122 2.45494 17.1722C4.85074 15.6322 6.59056 16.5306 7.161 17.1722C7.161 15.8033 5.59231 15.0331 4.80797 14.8191C9.94185 8.8294 18.7835 9.61392 22.5626 10.7549C27.3543 4.76537 32.973 7.261 35.1834 9.25751C29.7073 10.4554 28.6235 13.0366 28.7661 14.1775C38.1782 23.2473 33.686 34.2139 30.2635 38.5634C28.381 25.7287 18.9261 21.6644 14.434 21.2366C12.2093 21.4077 11.6531 24.7305 11.6531 26.3704C9.25733 25.8571 8.9436 22.1635 9.0862 20.3809C4.46571 20.2098 1.45668 21.5931 0.529731 22.3061Z" fill="#00A2B8"/>
    <path d="M58.7852 11.7188H66.0508L73.9023 30.8984H74.2148L82.0664 11.7188H89.332V40H83.6289V21.4844H83.3945L76.0117 39.8828H72.1055L64.7227 21.4062H64.4883V40H58.7852V11.7188ZM119.796 25.8594C119.796 35.0781 114.054 40.3906 106.593 40.3906C99.0539 40.3906 93.3508 35.0391 93.3508 25.8594C93.3508 16.6406 99.0539 11.3281 106.593 11.3281C114.054 11.3281 119.796 16.6406 119.796 25.8594ZM113.82 25.8594C113.82 19.8047 110.968 16.5234 106.593 16.5234C102.218 16.5234 99.3273 19.8047 99.3273 25.8594C99.3273 31.9141 102.218 35.1953 106.593 35.1953C110.968 35.1953 113.82 31.9141 113.82 25.8594ZM123.815 40V11.7188H135.065C141.315 11.7188 144.44 14.7266 144.44 18.9844C144.44 22.3047 142.291 24.375 139.362 25.0391V25.3125C142.565 25.4688 145.573 28.0078 145.573 32.1875C145.573 36.6797 142.213 40 135.807 40H123.815ZM134.635 35.1562C138.034 35.1562 139.479 33.75 139.479 31.6406C139.479 29.2578 137.682 27.5781 134.791 27.5781H129.674V35.1562H134.635ZM134.205 23.5547C136.666 23.5547 138.502 22.1875 138.502 19.9219C138.502 17.8906 137.018 16.4844 134.323 16.4844H129.674V23.5547H134.205ZM147.365 11.7188H153.966L160.49 23.9062H160.763L167.248 11.7188H173.849L163.537 29.9219V40H157.677V29.9219L147.365 11.7188ZM186.657 40H176.696V11.7188H186.774C195.29 11.7188 200.485 17.0312 200.485 25.8203C200.485 34.6875 195.29 40 186.657 40ZM182.555 34.9609H186.423C191.813 34.9609 194.626 32.1484 194.626 25.8203C194.626 19.5312 191.813 16.7578 186.462 16.7578H182.555V34.9609ZM210.402 11.7188V40H204.543V11.7188H210.402ZM233.874 21.5625C233.405 18.4375 230.984 16.5234 227.702 16.5234C223.288 16.5234 220.398 19.9219 220.398 25.8594C220.398 31.9531 223.327 35.1953 227.663 35.1953C230.905 35.1953 233.288 33.3984 233.874 30.3516L239.812 30.3906C239.148 35.625 234.773 40.3906 227.585 40.3906C220.007 40.3906 214.421 35.0781 214.421 25.8594C214.421 16.6406 220.124 11.3281 227.585 11.3281C234.109 11.3281 239.03 15.0781 239.812 21.5625H233.874ZM243.713 40V11.7188H249.573V24.2578H249.963L260.237 11.7188H267.307L256.76 24.375L267.424 40H260.393L252.541 28.3203L249.573 31.9141V40H243.713Z" fill="#DDDDDD"/>
</svg>
