<svg width="249" height="52" viewBox="0 0 249 52" fill="none" xmlns="http://www.w3.org/2000/svg">
    <path d="M3.31063 38.5632C11.696 48.831 23.347 44.5528 28.1244 41.1302C28.8089 39.9321 27.8392 40.0607 27.2687 40.2747C20.9369 43.184 16.3592 39.0625 14.8618 36.6381C14.3485 35.4402 13.7923 35.9964 13.5784 36.4242C11.6959 39.8468 6.5193 38.7059 4.16627 37.7076C3.1395 37.5365 3.16802 38.2067 3.31063 38.5632Z" fill="#014852"/>
    <path d="M0.529731 22.3061C-1.01043 22.135 1.17147 18.8122 2.45494 17.1722C4.85074 15.6322 6.59056 16.5306 7.161 17.1722C7.161 15.8033 5.59231 15.0331 4.80797 14.8191C9.94185 8.8294 18.7835 9.61392 22.5626 10.7549C27.3543 4.76537 32.973 7.261 35.1834 9.25751C29.7073 10.4554 28.6235 13.0366 28.7661 14.1775C38.1782 23.2473 33.686 34.2139 30.2635 38.5634C28.381 25.7287 18.9261 21.6644 14.434 21.2366C12.2093 21.4077 11.6531 24.7305 11.6531 26.3704C9.25733 25.8571 8.9436 22.1635 9.0862 20.3809C4.46571 20.2098 1.45668 21.5931 0.529731 22.3061Z" fill="#00A2B8"/>
    <path d="M64.0164 11.7188L71.868 30.8984H72.1805L80.032 11.7188H87.2977V40H81.5945V21.4844H81.3602L73.9773 39.8828H70.0711L62.6883 21.4062H62.4539V40H56.7508V11.7188H64.0164ZM117.762 25.8594C117.762 28.8542 117.189 31.4518 116.043 33.6523C114.897 35.8398 113.322 37.513 111.316 38.6719C109.324 39.8177 107.072 40.3906 104.559 40.3906C102.033 40.3906 99.7669 39.8112 97.7617 38.6523C95.7565 37.4935 94.181 35.8203 93.0352 33.6328C91.8893 31.4323 91.3164 28.8411 91.3164 25.8594C91.3164 22.8646 91.8893 20.2734 93.0352 18.0859C94.181 15.8854 95.7565 14.2122 97.7617 13.0664C99.7669 11.9076 102.033 11.3281 104.559 11.3281C107.072 11.3281 109.324 11.9076 111.316 13.0664C113.322 14.2122 114.897 15.8854 116.043 18.0859C117.189 20.2734 117.762 22.8646 117.762 25.8594ZM111.785 25.8594C111.785 23.8672 111.486 22.1745 110.887 20.7812C110.301 19.388 109.467 18.3333 108.387 17.6172C107.306 16.888 106.03 16.5234 104.559 16.5234C103.087 16.5234 101.805 16.888 100.711 17.6172C99.6302 18.3333 98.7904 19.3945 98.1914 20.8008C97.5924 22.194 97.293 23.8802 97.293 25.8594C97.293 27.8385 97.5924 29.5312 98.1914 30.9375C98.7904 32.3307 99.6302 33.3919 100.711 34.1211C101.805 34.8372 103.087 35.1953 104.559 35.1953C106.03 35.1953 107.306 34.8372 108.387 34.1211C109.467 33.3919 110.301 32.3307 110.887 30.9375C111.486 29.5443 111.785 27.8516 111.785 25.8594ZM121.78 11.7188H133.03C135.062 11.7188 136.78 12.0247 138.187 12.6367C139.593 13.2487 140.648 14.1016 141.351 15.1953C142.054 16.276 142.405 17.5391 142.405 18.9844C142.405 20.5859 141.937 21.9076 140.999 22.9492C140.075 23.9909 138.851 24.6875 137.327 25.0391V25.3125C138.421 25.3646 139.437 25.6771 140.374 26.25C141.325 26.8229 142.086 27.6237 142.659 28.6523C143.245 29.668 143.538 30.8464 143.538 32.1875C143.538 33.7109 143.161 35.0586 142.405 36.2305C141.663 37.4023 140.557 38.3268 139.085 39.0039C137.627 39.668 135.856 40 133.773 40H121.78V11.7188ZM132.601 35.1562C134.241 35.1562 135.459 34.8503 136.253 34.2383C137.047 33.6133 137.445 32.7474 137.445 31.6406C137.445 30.8464 137.249 30.1432 136.859 29.5312C136.481 28.9193 135.941 28.444 135.237 28.1055C134.534 27.7539 133.708 27.5781 132.757 27.5781H127.64V35.1562H132.601ZM132.171 23.5547C132.991 23.5547 133.727 23.4115 134.378 23.125C135.029 22.8255 135.537 22.4023 135.902 21.8555C136.279 21.3086 136.468 20.6641 136.468 19.9219C136.468 18.8802 136.097 18.0469 135.355 17.4219C134.626 16.7969 133.603 16.4844 132.288 16.4844H127.64V23.5547H132.171ZM152.909 40H147.049V11.7188H152.909V40ZM157.474 40V11.7188H167.552C170.378 11.7188 172.819 12.2852 174.877 13.418C176.934 14.5378 178.509 16.1589 179.603 18.2812C180.71 20.4036 181.263 22.9167 181.263 25.8203C181.263 28.75 180.71 31.2826 179.603 33.418C178.496 35.5404 176.908 37.168 174.837 38.3008C172.767 39.4336 170.3 40 167.435 40H157.474ZM167.201 34.9609C169.935 34.9609 171.986 34.2188 173.353 32.7344C174.72 31.25 175.404 28.9453 175.404 25.8203C175.404 22.7214 174.72 20.4362 173.353 18.9648C171.999 17.4935 169.961 16.7578 167.24 16.7578H163.334V34.9609H167.201ZM191.18 40H185.321V11.7188H191.18V40ZM214.652 21.5625C214.496 20.5339 214.138 19.6419 213.578 18.8867C213.018 18.1185 212.302 17.5326 211.43 17.1289C210.557 16.7253 209.574 16.5234 208.48 16.5234C207.009 16.5234 205.72 16.8945 204.613 17.6367C203.52 18.3659 202.673 19.4336 202.074 20.8398C201.475 22.2331 201.176 23.9062 201.176 25.8594C201.176 27.8516 201.475 29.5508 202.074 30.957C202.673 32.3503 203.52 33.4049 204.613 34.1211C205.707 34.8372 206.983 35.1953 208.441 35.1953C210.069 35.1953 211.436 34.7656 212.543 33.9062C213.663 33.0469 214.366 31.862 214.652 30.3516L220.59 30.3906C220.368 32.1745 219.737 33.8281 218.695 35.3516C217.654 36.875 216.247 38.099 214.477 39.0234C212.706 39.9349 210.668 40.3906 208.363 40.3906C205.824 40.3906 203.559 39.8177 201.566 38.6719C199.574 37.513 198.012 35.8398 196.879 33.6523C195.759 31.4648 195.199 28.8672 195.199 25.8594C195.199 22.8646 195.766 20.2734 196.898 18.0859C198.044 15.8854 199.613 14.2122 201.605 13.0664C203.611 11.9076 205.863 11.3281 208.363 11.3281C210.538 11.3281 212.504 11.7318 214.262 12.5391C216.02 13.3464 217.445 14.5247 218.539 16.0742C219.646 17.6107 220.329 19.4401 220.59 21.5625H214.652ZM224.491 11.7188H230.351V24.2578H230.741L241.015 11.7188H248.085L237.538 24.375L248.202 40H241.171L233.32 28.3203L230.351 31.9141V40H224.491V11.7188Z" fill="#DDDDDD"/>
</svg>
