<svg width="268" height="52" viewBox="0 0 268 52" fill="none" xmlns="http://www.w3.org/2000/svg">
    <path d="M3.31063 38.5623C11.696 48.83 23.347 44.5518 28.1244 41.1292C28.8089 39.9311 27.8392 40.0597 27.2687 40.2738C20.9369 43.183 16.3592 39.0616 14.8618 36.6372C14.3485 35.4393 13.7923 35.9954 13.5784 36.4233C11.6959 39.8458 6.5193 38.7049 4.16627 37.7066C3.1395 37.5355 3.16802 38.2057 3.31063 38.5623Z" fill="#014852"/>
    <path d="M0.529731 22.3061C-1.01043 22.135 1.17147 18.8122 2.45494 17.1722C4.85074 15.6322 6.59056 16.5306 7.161 17.1722C7.161 15.8033 5.59231 15.0331 4.80797 14.8191C9.94185 8.8294 18.7835 9.61392 22.5626 10.7549C27.3543 4.76537 32.973 7.261 35.1834 9.25751C29.7073 10.4554 28.6235 13.0366 28.7661 14.1775C38.1782 23.2473 33.686 34.2139 30.2635 38.5634C28.381 25.7287 18.9261 21.6644 14.434 21.2366C12.2093 21.4077 11.6531 24.7305 11.6531 26.3704C9.25733 25.8571 8.9436 22.1635 9.0862 20.3809C4.46571 20.2098 1.45668 21.5931 0.529731 22.3061Z" fill="#00A2B8"/>
    <path d="M57.4648 11.7188H64.7305L72.582 30.8984H72.8945L80.7461 11.7188H88.0117V40H82.3086V21.4844H82.0742L74.6914 39.8828H70.7852L63.4023 21.4062H63.168V40H57.4648V11.7188ZM118.476 25.8594C118.476 35.0781 112.734 40.3906 105.273 40.3906C97.7336 40.3906 92.0305 35.0391 92.0305 25.8594C92.0305 16.6406 97.7336 11.3281 105.273 11.3281C112.734 11.3281 118.476 16.6406 118.476 25.8594ZM112.499 25.8594C112.499 19.8047 109.648 16.5234 105.273 16.5234C100.898 16.5234 98.007 19.8047 98.007 25.8594C98.007 31.9141 100.898 35.1953 105.273 35.1953C109.648 35.1953 112.499 31.9141 112.499 25.8594ZM125.854 11.7188L132.729 33.2812H133.002L139.916 11.7188H146.401L136.635 40H129.096L119.291 11.7188H125.854ZM147.685 11.7188H154.287L160.81 23.9062H161.084L167.568 11.7188H174.17L163.857 29.9219V40H157.998V29.9219L147.685 11.7188ZM186.977 40H177.016V11.7188H187.095C195.61 11.7188 200.805 17.0312 200.805 25.8203C200.805 34.6875 195.61 40 186.977 40ZM182.876 34.9609H186.743C192.134 34.9609 194.946 32.1484 194.946 25.8203C194.946 19.5312 192.134 16.7578 186.782 16.7578H182.876V34.9609ZM210.723 11.7188V40H204.863V11.7188H210.723ZM234.195 21.5625C233.726 18.4375 231.304 16.5234 228.023 16.5234C223.609 16.5234 220.718 19.9219 220.718 25.8594C220.718 31.9531 223.648 35.1953 227.984 35.1953C231.226 35.1953 233.609 33.3984 234.195 30.3516L240.132 30.3906C239.468 35.625 235.093 40.3906 227.905 40.3906C220.327 40.3906 214.741 35.0781 214.741 25.8594C214.741 16.6406 220.445 11.3281 227.905 11.3281C234.429 11.3281 239.351 15.0781 240.132 21.5625H234.195ZM244.034 40V11.7188H249.893V24.2578H250.284L260.557 11.7188H267.627L257.08 24.375L267.745 40H260.713L252.862 28.3203L249.893 31.9141V40H244.034Z" fill="#DDDDDD"/>
</svg>
